<!-- <svg
    xmlns="http://www.w3.org/2000/svg" version="1.1" width="256" height="256" viewbox="0 0 949 256">
    <path fill="#2366d1" d="M110.85125168440814 128L221.70250336881628 192L110.85125168440814 256L0 192Z"/>
    <path fill="#609dff" d="M110.85125168440814 64L221.70250336881628 128L110.85125168440814 192L0 128Z"/>
    <path fill="#a4c7ff" d="M110.85125168440814 0L221.70250336881628 64L110.85125168440814 128L0 64Z"/>
</svg> -->

<svg 
    xmlns="http://www.w3.org/2000/svg" width="256" height="256" viewBox="0 0 24.38 26.53">
    <path fill="#609dff" d="M13.29 6.49h-.77v3.12h.72c1.84 0 2-.93 2-1.63.05-.37.05-1.49-1.95-1.49z"/>
    <path fill="#609dff" d="M23.27 19.44L22.15 18l-3.26-4a7.26 7.26 0 0 0 3.24-6.23 7.73 7.73 0 0 0-2.81-6.11C17.76.41 16.15 0 12.91 0H5.68L0 5.68v20.85h7.7l.85-.85.09.12.26.36.26.37h9.54l5.68-5.69zm-2.46.56h-5.52l-.29-.38-2.51-3.5V20h-6V.86h6.36c3.05 0 4.49.35 5.88 1.43a6.87 6.87 0 0 1 2.48 5.43 6.26 6.26 0 0 1-3.71 6l3.92 4.91L22.59 20z"/>
</svg>