<!-- <svg
    xmlns="http://www.w3.org/2000/svg" version="1.1" width="949" height="256" viewbox="0 0 949 256">
    <path fill="#2366d1" d="M110.85125168440814 128L221.70250336881628 192L110.85125168440814 256L0 192Z"/>
    <path fill="#609dff" d="M110.85125168440814 64L221.70250336881628 128L110.85125168440814 192L0 128Z"/>
    <path fill="#a4c7ff" d="M110.85125168440814 0L221.70250336881628 64L110.85125168440814 128L0 64Z"/>
    <g transform="translate(300, 55.695), scale(0.7)" fill="#333">
        <path d="M 613.888 10.24 L 613.888 137.216 A 60.705 60.705 0 0 0 613.954 140.055 Q 614.553 152.847 620.602 163.316 A 50.135 50.135 0 0 0 621.696 165.12 A 51.598 51.598 0 0 0 624.562 169.185 Q 631.357 177.897 641.762 183.449 A 63.11 63.11 0 0 0 643.456 184.32 A 61.649 61.649 0 0 0 648.369 186.492 Q 659.467 190.833 672.846 191.198 A 90.809 90.809 0 0 0 675.328 191.232 A 90.563 90.563 0 0 0 678.104 191.19 Q 692.78 190.74 704.7 185.489 A 61.259 61.259 0 0 0 707.2 184.32 Q 721.152 177.408 729.088 165.12 A 49.502 49.502 0 0 0 731.322 161.299 Q 736.63 151.203 736.997 139.036 A 60.335 60.335 0 0 0 737.024 137.216 L 737.024 10.24 A 10.857 10.857 0 0 1 737.062 9.315 Q 737.313 6.384 739.2 4.608 A 7.256 7.256 0 0 1 741.925 2.981 Q 743.196 2.56 744.704 2.56 Q 746.956 2.56 748.602 3.369 A 6.472 6.472 0 0 1 750.336 4.608 Q 752.167 6.439 752.361 9.499 A 11.729 11.729 0 0 1 752.384 10.24 L 752.384 137.216 Q 752.384 156.807 743.135 172.194 A 64.077 64.077 0 0 1 742.528 173.184 Q 732.672 188.928 715.136 197.76 Q 698.912 205.931 678.635 206.543 A 109.71 109.71 0 0 1 675.328 206.592 Q 653.056 206.592 635.52 197.76 A 77.835 77.835 0 0 1 632.828 196.338 Q 618.963 188.661 610.337 176.346 A 65.778 65.778 0 0 1 608.256 173.184 Q 598.528 157.44 598.528 137.216 L 598.528 10.24 A 10.857 10.857 0 0 1 598.566 9.315 Q 598.817 6.384 600.704 4.608 A 7.256 7.256 0 0 1 603.429 2.981 Q 604.7 2.56 606.208 2.56 Q 608.46 2.56 610.106 3.369 A 6.472 6.472 0 0 1 611.84 4.608 Q 613.671 6.439 613.865 9.499 A 11.729 11.729 0 0 1 613.888 10.24 Z M 895.488 8.96 A 69.507 69.507 0 0 0 894.88 8.615 Q 879.509 0 861.184 0 A 100.005 100.005 0 0 0 858.79 0.028 Q 842.342 0.422 829.568 6.272 A 61.75 61.75 0 0 0 828.078 6.979 Q 815.456 13.172 808.32 23.936 Q 800.768 35.328 800.768 50.176 Q 800.768 69.697 815.175 83.659 A 59.222 59.222 0 0 0 817.024 85.376 A 60.63 60.63 0 0 0 819.68 87.606 Q 834.727 99.526 859.059 103.529 A 133.91 133.91 0 0 0 861.696 103.936 Q 884.116 107.004 896.419 116.925 A 41.61 41.61 0 0 1 898.432 118.656 A 43.592 43.592 0 0 1 899.28 119.455 Q 910.848 130.653 910.848 147.456 Q 910.848 167.68 898.176 178.688 A 39.281 39.281 0 0 1 893.72 182.034 Q 882.522 189.266 865.531 189.672 A 85.481 85.481 0 0 1 863.488 189.696 A 102.18 102.18 0 0 1 861.3 189.673 Q 845.567 189.336 833.654 184.112 A 55.097 55.097 0 0 1 830.592 182.656 A 56.619 56.619 0 0 1 829.066 181.842 Q 818.274 175.871 811.94 166.114 A 47.528 47.528 0 0 1 809.984 162.816 A 12.115 12.115 0 0 0 809.808 162.46 Q 807.734 158.428 803.571 158.002 A 9.942 9.942 0 0 0 802.56 157.952 A 12.194 12.194 0 0 0 802.217 157.957 Q 798.871 158.051 796.8 160 A 7.449 7.449 0 0 0 796.119 160.731 Q 794.934 162.191 794.688 164.094 A 8.003 8.003 0 0 0 794.624 165.12 A 6.218 6.218 0 0 0 794.708 166.137 Q 794.803 166.708 795.004 167.28 A 7.895 7.895 0 0 0 795.392 168.192 A 65.044 65.044 0 0 0 796.099 169.546 Q 804.091 184.419 819.055 193.615 A 74.4 74.4 0 0 0 821.76 195.2 Q 839.424 205.056 863.488 205.056 Q 879.548 205.056 892.299 199.951 A 62.036 62.036 0 0 0 896.384 198.144 Q 910.592 191.232 918.4 178.176 A 51.186 51.186 0 0 0 920.533 174.225 Q 926.208 162.515 926.208 147.456 A 72.811 72.811 0 0 0 926.178 145.354 Q 925.592 125.061 913.589 111.755 A 49.8 49.8 0 0 0 911.36 109.44 Q 896.512 94.976 864.256 89.6 A 157.882 157.882 0 0 1 862.446 89.288 Q 839.242 85.142 827.904 75.776 A 41.218 41.218 0 0 1 826.977 74.987 Q 816.128 65.472 816.128 51.712 A 49.293 49.293 0 0 1 816.128 51.578 Q 816.175 34.522 828.032 24.96 A 35.234 35.234 0 0 1 828.891 24.289 Q 840.118 15.794 859.213 15.381 A 91.194 91.194 0 0 1 861.184 15.36 A 73.044 73.044 0 0 1 862.037 15.365 Q 888.747 15.677 903.514 35.593 A 59.37 59.37 0 0 1 904.96 37.632 Q 907.22 41.022 911.076 41.419 A 10.261 10.261 0 0 0 912.128 41.472 A 14.543 14.543 0 0 0 912.743 41.459 Q 914.336 41.392 915.2 40.96 A 10.655 10.655 0 0 0 915.336 40.891 Q 916.348 40.366 917.135 39.681 A 7.607 7.607 0 0 0 918.4 38.272 Q 919.197 37.122 919.442 35.787 A 6.761 6.761 0 0 0 919.552 34.56 Q 919.552 32.256 918.528 30.464 Q 911.104 17.92 895.488 8.96 Z M 160.311 0.068 A 110.648 110.648 0 0 0 156.416 0 Q 131.565 0 110.402 11.483 A 99.343 99.343 0 0 0 106.112 13.952 A 109.009 109.009 0 0 0 104.543 14.926 Q 84.677 27.489 72.14 47.479 A 111.393 111.393 0 0 0 69.76 51.456 Q 56.32 75.008 56.32 102.4 Q 56.32 127.331 67.56 149.187 A 107.592 107.592 0 0 0 69.888 153.472 Q 83.456 177.152 106.496 191.104 A 103.444 103.444 0 0 0 108.082 192.045 Q 130.459 205.056 156.416 205.056 Q 197.376 205.056 219.392 183.04 Q 220.918 181.296 221.145 178.624 A 11.364 11.364 0 0 0 221.184 177.664 Q 221.184 174.906 219.514 172.852 A 8.614 8.614 0 0 0 218.752 172.032 A 10.501 10.501 0 0 0 218.638 171.925 Q 216.248 169.728 213.248 169.728 A 6.244 6.244 0 0 0 211.549 169.961 Q 210.906 170.141 210.291 170.463 A 7.508 7.508 0 0 0 209.408 171.008 Q 186.624 189.696 156.416 189.696 Q 135.765 189.696 117.743 180.022 A 87.237 87.237 0 0 1 114.048 177.92 Q 94.464 166.144 83.072 146.048 Q 72.704 127.758 71.772 106.604 A 95.549 95.549 0 0 1 71.68 102.4 Q 71.68 79.616 83.2 59.52 A 97.348 97.348 0 0 1 83.35 59.26 Q 94.847 39.346 114.304 27.392 A 88.056 88.056 0 0 1 117.155 25.713 Q 133.663 16.406 152.218 15.466 A 82.911 82.911 0 0 1 156.416 15.36 A 117.212 117.212 0 0 1 156.817 15.361 Q 180.184 15.441 196.829 24.848 A 63.01 63.01 0 0 1 207.872 32.768 A 23.034 23.034 0 0 0 208.339 33.158 Q 211.641 35.84 214.272 35.84 A 9.974 9.974 0 0 0 214.911 35.82 Q 217.343 35.664 219.009 34.296 A 6.873 6.873 0 0 0 219.904 33.408 A 9.994 9.994 0 0 0 220.133 33.126 Q 221.952 30.799 221.952 27.904 A 8.988 8.988 0 0 0 221.929 27.259 Q 221.724 24.398 219.648 22.784 A 110.881 110.881 0 0 0 219.543 22.697 Q 193.686 1.244 160.311 0.068 Z M 551.168 198.4 L 504.064 123.136 L 499.456 123.136 L 458.24 123.136 L 458.24 194.816 Q 458.24 198.144 456.192 200.32 Q 454.232 202.403 450.865 202.492 A 11.487 11.487 0 0 1 450.56 202.496 Q 447.452 202.496 445.349 200.598 A 7.871 7.871 0 0 1 445.056 200.32 A 7.525 7.525 0 0 1 444.182 199.275 Q 442.889 197.403 442.88 194.85 A 10.179 10.179 0 0 1 442.88 194.816 L 442.88 10.24 A 10.857 10.857 0 0 1 442.918 9.315 Q 443.169 6.384 445.056 4.608 A 7.256 7.256 0 0 1 447.781 2.981 Q 449.052 2.56 450.56 2.56 L 499.456 2.56 Q 517.888 2.56 532.48 10.24 Q 545.954 17.332 553.971 29.662 A 58.968 58.968 0 0 1 555.264 31.744 A 56.737 56.737 0 0 1 560.414 43.13 Q 563.456 52.468 563.456 63.232 Q 563.456 82.2 553.946 96.465 A 56.692 56.692 0 0 1 551.808 99.456 A 58.849 58.849 0 0 1 549.212 102.618 Q 538.621 114.637 522.253 119.779 A 72.195 72.195 0 0 1 520.448 120.32 L 564.48 190.72 Q 566.528 194.304 566.528 196.608 A 6.599 6.599 0 0 1 566.478 197.436 Q 566.253 199.208 565.035 200.395 A 5.625 5.625 0 0 1 564.352 200.96 A 6.473 6.473 0 0 1 563.547 201.443 Q 561.472 202.496 558.08 202.496 Q 555.751 202.496 554.27 201.649 A 4.911 4.911 0 0 1 553.984 201.472 Q 552.654 200.585 551.515 198.93 A 14.447 14.447 0 0 1 551.168 198.4 Z M 399.104 197.632 L 380.16 152.32 L 275.968 152.32 L 257.024 197.632 Q 255.324 202.248 250.396 202.483 A 11.297 11.297 0 0 1 249.856 202.496 A 10.258 10.258 0 0 1 248.931 202.455 Q 246.143 202.203 244.4 200.383 A 6.997 6.997 0 0 1 244.224 200.192 A 8.678 8.678 0 0 1 243.477 199.224 Q 242.176 197.264 242.176 194.816 A 7.805 7.805 0 0 1 242.282 193.521 A 7.181 7.181 0 0 1 242.944 191.488 L 320.512 7.936 A 12.196 12.196 0 0 1 320.852 7.129 Q 322.805 2.936 327.14 2.591 A 10.038 10.038 0 0 1 327.936 2.56 A 9.004 9.004 0 0 1 328.947 2.615 Q 333.29 3.106 335.36 7.936 L 413.184 191.488 Q 413.952 193.024 413.952 194.816 A 7.64 7.64 0 0 1 413.846 196.101 Q 413.457 198.383 411.648 200.192 A 9.044 9.044 0 0 1 410.871 200.886 Q 409.083 202.303 406.879 202.473 A 7.908 7.908 0 0 1 406.272 202.496 A 9.93 9.93 0 0 1 405.339 202.453 Q 400.96 202.04 399.104 197.632 Z M 15.36 10.24 L 15.36 194.816 Q 15.36 197.924 13.462 200.027 A 7.871 7.871 0 0 1 13.184 200.32 A 7.525 7.525 0 0 1 12.139 201.194 Q 10.267 202.487 7.714 202.496 A 10.179 10.179 0 0 1 7.68 202.496 Q 4.572 202.496 2.469 200.598 A 7.871 7.871 0 0 1 2.176 200.32 A 7.525 7.525 0 0 1 1.302 199.275 Q 0.009 197.403 0 194.85 A 10.179 10.179 0 0 1 0 194.816 L 0 10.24 Q 0 7.132 1.898 5.029 A 7.871 7.871 0 0 1 2.176 4.736 A 7.525 7.525 0 0 1 3.221 3.862 Q 5.093 2.569 7.646 2.56 A 10.179 10.179 0 0 1 7.68 2.56 Q 10.788 2.56 12.891 4.458 A 7.871 7.871 0 0 1 13.184 4.736 A 7.525 7.525 0 0 1 14.058 5.781 Q 15.351 7.653 15.36 10.206 A 10.179 10.179 0 0 1 15.36 10.24 Z M 281.856 138.496 L 374.272 138.496 L 327.936 27.904 L 281.856 138.496 Z M 458.24 107.776 L 499.456 107.776 Q 510.418 107.776 519.519 104.362 A 48.175 48.175 0 0 0 524.544 102.144 A 47.471 47.471 0 0 0 527.059 100.761 Q 534.75 96.219 539.878 89.183 A 43.678 43.678 0 0 0 541.824 86.272 Q 547.436 77.109 548.027 65.896 A 50.673 50.673 0 0 0 548.096 63.232 Q 548.096 50.176 541.824 39.808 Q 535.552 29.44 524.544 23.68 Q 513.536 17.92 499.456 17.92 L 458.24 17.92 L 458.24 107.776 Z" vector-effect="non-scaling-stroke"/>
    </g>
</svg> -->
<svg
    version="1.1"
    xmlns="http://www.w3.org/2000/svg"
    width="1200"
    height="256"
    viewbox="0 0 949 256">
    <g>
        <svg xmlns="http://www.w3.org/2000/svg" width="256" height="256" viewBox="0 0 24.38 26.53">
            <path fill="#609dff" d="M13.29 6.49h-.77v3.12h.72c1.84 0 2-.93 2-1.63.05-.37.05-1.49-1.95-1.49z"/>
            <path fill="#609dff" d="M23.27 19.44L22.15 18l-3.26-4a7.26 7.26 0 0 0 3.24-6.23 7.73 7.73 0 0 0-2.81-6.11C17.76.41 16.15 0 12.91 0H5.68L0 5.68v20.85h7.7l.85-.85.09.12.26.36.26.37h9.54l5.68-5.69zm-2.46.56h-5.52l-.29-.38-2.51-3.5V20h-6V.86h6.36c3.05 0 4.49.35 5.88 1.43a6.87 6.87 0 0 1 2.48 5.43 6.26 6.26 0 0 1-3.71 6l3.92 4.91L22.59 20z"/>
        </svg>
    </g>
    <g transform="translate(280, 154), scale(5)" fill="#333">
        <path d="M11.66-16.79L17.28-16.79 17.28-14.64 11.66-14.64Q10.35-14.64 9.18-14.13 8-13.62 7.15-12.76 6.3-11.91 5.78-10.74 5.27-9.57 5.27-8.25L5.27-8.25 5.27 5.08 3.12 5.08 3.12-16.84 5.27-16.84 5.27-13.96Q6.49-15.28 8.13-16.03 9.76-16.79 11.66-16.79L11.66-16.79ZM38.95-5.66L24.75-5.66 24.75-1.22Q24.75 0.54 25.97 1.78 27.19 3.03 28.94 3.03L28.94 3.03 33.63 3.03Q35.39 3.03 36.63 1.78 37.87 0.54 37.87-1.22L37.87-1.22 37.87-3.12 40.07-3.12 40.07-1.22Q40.07 0.1 39.56 1.27 39.05 2.44 38.17 3.32 37.29 4.2 36.12 4.71 34.95 5.22 33.63 5.22L33.63 5.22 28.94 5.22Q27.62 5.22 26.45 4.71 25.28 4.2 24.43 3.32 23.57 2.44 23.06 1.27 22.55 0.1 22.55-1.22L22.55-1.22 22.55-10.4Q22.55-11.71 23.06-12.89 23.57-14.06 24.43-14.93 25.28-15.81 26.45-16.3 27.62-16.79 28.94-16.79L28.94-16.79 33.63-16.79Q34.95-16.79 36.12-16.3 37.29-15.81 38.17-14.93 39.05-14.06 39.56-12.89 40.07-11.71 40.07-10.4L40.07-10.4 40.07-6.78Q40.07-6.3 39.75-5.98 39.44-5.66 38.95-5.66L38.95-5.66ZM24.75-7.86L37.87-7.86 37.87-10.4Q37.87-12.15 36.63-13.4 35.39-14.64 33.63-14.64L33.63-14.64 28.94-14.64Q27.19-14.64 25.97-13.4 24.75-12.15 24.75-10.4L24.75-10.4 24.75-7.86ZM57.59 5.22L57.59 5.22 49.59 5.22Q47.83 5.22 46.59 3.95 45.34 2.68 45.34 0.93L45.34 0.93 45.34-1.37 47.49-1.37 47.49 0.93Q47.49 1.81 48.12 2.42 48.76 3.03 49.59 3.03L49.59 3.03 57.59 3.03Q58.47 3.03 59.08 2.42 59.69 1.81 59.69 0.93L59.69 0.93 59.69-1.71Q59.69-2.39 59.3-2.95 58.91-3.51 58.23-3.71L58.23-3.71 48.37-6.78Q47-7.22 46.17-8.35 45.34-9.47 45.34-10.88L45.34-10.88 45.34-12.54Q45.34-14.3 46.59-15.55 47.83-16.79 49.59-16.79L49.59-16.79 57.59-16.79Q59.35-16.79 60.62-15.55 61.89-14.3 61.89-12.54L61.89-12.54 61.89-9.61 59.69-9.61 59.69-12.54Q59.69-13.42 59.08-14.03 58.47-14.64 57.59-14.64L57.59-14.64 49.59-14.64Q48.76-14.64 48.12-14.03 47.49-13.42 47.49-12.54L47.49-12.54 47.49-10.88Q47.49-10.2 47.9-9.64 48.32-9.08 49-8.88L49-8.88 58.86-5.81Q60.23-5.37 61.06-4.25 61.89-3.12 61.89-1.71L61.89-1.71 61.89 0.93Q61.89 1.81 61.55 2.59 61.2 3.37 60.62 3.95 60.03 4.54 59.25 4.88 58.47 5.22 57.59 5.22ZM69.26 21.43L67.06 21.43 67.06-16.3Q67.06-16.69 67.4-17.03L67.4-17.03Q67.7-17.38 68.13-17.38L68.13-17.38 76.04-17.38Q77.8-17.38 79.36-16.69 80.92-16.01 82.07-14.86 83.22-13.71 83.9-12.15 84.58-10.59 84.58-8.83L84.58-8.83 84.58-3.9Q84.58-2.15 83.9-0.59 83.22 0.98 82.07 2.12 80.92 3.27 79.36 3.95 77.8 4.64 76.04 4.64L76.04 4.64 69.26 4.64 69.26 21.43ZM69.26-15.18L69.26 2.44 76.04 2.44Q77.36 2.44 78.51 1.95 79.65 1.46 80.53 0.59 81.41-0.29 81.9-1.44 82.39-2.59 82.39-3.9L82.39-3.9 82.39-8.83Q82.39-10.15 81.9-11.3 81.41-12.45 80.53-13.32 79.65-14.2 78.51-14.69 77.36-15.18 76.04-15.18L76.04-15.18 69.26-15.18ZM94.54-16.79L101.37-16.79Q102.45-16.79 103.42-16.37 104.4-15.96 105.13-15.23 105.86-14.5 106.3-13.52 106.74-12.54 106.74-11.47L106.74-11.47 106.74 5.22 104.54 5.22 104.54 4.15Q103.18 5.22 101.37 5.22L101.37 5.22 94.54 5.22Q93.42 5.22 92.46 4.81 91.51 4.39 90.78 3.66 90.05 2.93 89.63 1.95 89.22 0.98 89.22-0.15L89.22-0.15 89.22-2.39Q89.22-3.47 89.63-4.44 90.05-5.42 90.78-6.15 91.51-6.88 92.46-7.3 93.42-7.71 94.54-7.71L94.54-7.71 104.54-7.71 104.54-11.47Q104.54-12.79 103.62-13.71 102.69-14.64 101.37-14.64L101.37-14.64 94.54-14.64Q93.27-14.64 92.34-13.71 91.42-12.79 91.42-11.47L91.42-11.47 91.42-8.39 89.22-8.39 89.22-11.47Q89.22-12.54 89.63-13.52 90.05-14.5 90.78-15.23 91.51-15.96 92.46-16.37 93.42-16.79 94.54-16.79L94.54-16.79ZM104.54-0.15L104.54-5.56 94.54-5.56Q93.27-5.56 92.34-4.64 91.42-3.71 91.42-2.39L91.42-2.39 91.42-0.15Q91.42 1.17 92.34 2.1 93.27 3.03 94.54 3.03L94.54 3.03 101.37 3.03Q102.69 3.03 103.62 2.1 104.54 1.17 104.54-0.15L104.54-0.15ZM130.66 5.32L130.66 5.32 129.78 5.32Q128.95 5.32 128.75 4.54L128.75 4.54 123.73-12.79 118.75 4.54Q118.5 5.32 117.72 5.32L117.72 5.32 116.84 5.32Q116.45 5.32 116.16 5.08 115.87 4.83 115.77 4.44L115.77 4.44 111.72-16.59 113.87-17.03 117.38 1.37 122.41-16.01Q122.65-16.84 123.48-16.84L123.48-16.84 124.02-16.84Q124.41-16.84 124.68-16.62 124.95-16.4 125.04-16.01L125.04-16.01 130.07 1.37 133.63-17.03 135.78-16.59 131.68 4.44Q131.58 4.83 131.32 5.08 131.05 5.32 130.66 5.32ZM157.7-10.4L157.7 5.22 155.5 5.22 155.5-10.4Q155.5-12.15 154.25-13.4 153.01-14.64 151.25-14.64L151.25-14.64 146.47-14.64Q144.71-14.64 143.47-13.4 142.22-12.15 142.22-10.4L142.22-10.4 142.22 5.22 140.08 5.22 140.08-10.4Q140.08-11.71 140.59-12.89 141.1-14.06 141.95-14.91 142.81-15.76 143.98-16.28 145.15-16.79 146.47-16.79L146.47-16.79 151.25-16.79Q152.57-16.79 153.74-16.28 154.91-15.76 155.79-14.91 156.67-14.06 157.18-12.89 157.7-11.71 157.7-10.4L157.7-10.4ZM171.61-16.79L177.22-16.79 177.22-14.64 171.61-14.64Q170.29-14.64 169.12-14.13 167.94-13.62 167.09-12.76 166.24-11.91 165.72-10.74 165.21-9.57 165.21-8.25L165.21-8.25 165.21 5.08 163.06 5.08 163.06-16.84 165.21-16.84 165.21-13.96Q166.43-15.28 168.07-16.03 169.7-16.79 171.61-16.79L171.61-16.79Z"/>
    </g>
</svg>